<svg width="32" height="32" viewBox="0 0 32 32" fill="none" xmlns="http://www.w3.org/2000/svg">
<path d="M2.87758 3.06667C0.392397 5.73333 0 7.73333 0 16.1333C0 24.9333 0.392397 26.5333 3.00838 29.0667C5.62436 31.6 7.58635 32 15.8267 32C24.4594 32 26.029 31.6 28.5142 28.9333C30.9994 26.2667 31.3918 24.2667 31.3918 15.8667C31.3918 7.06667 30.9994 5.46667 28.3834 2.93333C25.7674 0.4 23.8054 0 15.5651 0C6.93235 0 5.36276 0.4 2.87758 3.06667ZM26.4214 4.93333C29.6914 7.86666 29.8222 23.3333 26.5522 26.9333C23.6746 30.2667 8.50194 30.4 4.97037 27.0667C1.70039 24.1333 1.56959 8.66667 4.83957 5.06667C7.71715 1.73333 22.8898 1.6 26.4214 4.93333Z" fill="#5EC5DC"/>
<path d="M23.0201 6.40102C22.6277 7.20102 22.8893 8.26769 23.6741 8.66769C25.6361 10.001 26.9441 8.26769 25.2437 6.53435C24.3281 5.60102 23.5433 5.60102 23.0201 6.40102Z" fill="#5EC5DC"/>
<path d="M10.0714 10.399C7.19386 13.599 7.32466 19.0657 10.2022 21.7324C15.4342 26.5324 23.5437 22.9324 23.5437 15.7324C23.5437 8.93238 14.5186 5.33238 10.0714 10.399ZM19.6198 12.6657C23.0205 16.9324 17.9194 23.4657 13.4722 20.5324C10.4638 18.6657 9.80984 15.0657 11.7718 12.6657C13.8646 10.1324 17.527 10.1324 19.6198 12.6657Z" fill="#5EC5DC"/>
</svg>
