<svg width="250" height="250" viewBox="0 0 250 250" fill="none" xmlns="http://www.w3.org/2000/svg">
<path fill-rule="evenodd" clip-rule="evenodd" d="M58.5127 107.769C58.9139 108.623 59.3272 109.503 59.777 110.395C68.9557 131.215 81.5505 148.171 97.0995 162.221C105.768 170.062 115.493 177.775 126.678 184.303C159.259 163.126 177.313 135.69 188.376 107.744L189.081 107.259C189.081 107.259 195.378 91.1951 198.15 68.9604C122.034 66.4616 73.9888 96.3458 58.5127 107.769Z" fill="#686868" fill-opacity="0.5"/>
<path d="M244.541 31.2612C244.541 18.4227 233.685 7.93005 220.482 7.93005C215.802 8.49102 211.109 8.93726 206.319 9.38349C207.911 36.3991 209.091 141.58 134.239 185.247C133.704 185.922 133.169 186.585 132.646 187.261C159.259 201.438 193.979 208.476 242.316 195.637L242.535 195.408C239.01 140.688 239.97 85.981 244.541 31.2612Z" fill="#B4B4B4" fill-opacity="0.5"/>
<path d="M5.83496 31.2612C13.0806 95.6831 13.0806 159.111 5.83496 221.862C5.83496 234.93 16.8007 245.308 29.894 245.308C93.5611 238.832 156.912 238.156 220.482 245.308C233.685 245.308 244.541 234.93 244.541 221.862C243.897 214.94 243.374 207.8 242.73 200.762C227.934 205.671 212.179 208.692 195.779 208.692C109.536 208.692 39.3766 131.878 39.3766 37.4063C39.3766 27.6914 40.337 18.206 41.7229 9.05199C37.784 8.82251 33.8451 8.37628 29.9062 7.93005C16.8007 7.93005 5.83496 18.4227 5.83496 31.2612Z" fill="#B4B4B4" fill-opacity="0.5"/>
<path fill-rule="evenodd" clip-rule="evenodd" d="M197.712 70.6692C199.244 59.4371 200.715 44.6862 201.225 27.1432V10.0593C154.275 13.629 95.1785 13.7438 45.5651 9.49829C43.6929 37.1514 44.9573 61.3622 49.9538 82.5897C50.3307 84.1834 53.4186 98.029 59.947 111.645C71.083 101.344 111.36 70.8604 197.712 70.6692Z" fill="#B4B4B4" fill-opacity="0.5"/>
</svg>
