<svg width="116" height="124" viewBox="0 0 116 124" fill="none" xmlns="http://www.w3.org/2000/svg">
<g filter="url(#filter0_d_207_498)">
<path d="M16 45.7757C16 39.974 24.5773 28.6011 23.6 22.8824C21.1618 8.61546 25.92 12.6568 29.6435 17.3856C32.2217 20.6599 36.0188 22.8824 40.1864 22.8824H67.6747C71.4997 22.8824 75.0461 21.013 77.5987 18.1643C81.6985 13.589 87.1594 9.15332 83.64 22.8824C81.9687 29.4022 92 38.7705 92 45.5011V85C92 91.6274 86.6274 97 80 97H28C21.3726 97 16 91.6274 16 85V45.7757Z" fill="black"/>
</g>
<g clip-path="url(#clip0_207_498)">
<path fill-rule="evenodd" clip-rule="evenodd" d="M45.3897 39.8438C40.2624 41.1545 38.2863 49.6407 41.9863 54.4591C46.182 59.9226 53.3104 56.0811 53.3104 48.3566C53.3104 42.8057 49.5621 38.7772 45.3897 39.8438ZM59.5218 39.8024C53.872 41.3113 52.169 50.606 56.7016 55.1947C61.5289 60.082 68.3877 54.538 67.2638 46.6571C66.6143 42.1037 62.9739 38.8805 59.5218 39.8024ZM35.3067 52.6629C29.9439 54.0695 29.7889 64.1963 35.1053 65.8203C37.9858 66.7001 40.6937 64.6631 41.462 61.038C42.4918 56.1794 39.1639 51.6513 35.3067 52.6629ZM70.4795 52.6647C66.8976 53.6034 65.2072 59.065 67.2499 63.0988C69.4201 67.3843 74.7482 66.8237 76.358 62.1405C78.1286 56.9895 74.751 51.5451 70.4795 52.6647ZM51.5061 58.1781C47.4002 58.6858 43.6833 60.9622 41.8738 64.0776C41.6656 64.4358 41.329 64.944 41.1256 65.2067C37.7252 69.5992 38.1598 75.819 41.9961 77.6673C43.753 78.5136 45.1526 78.1851 48.7517 76.0814C51.3543 74.5601 51.7444 74.3993 52.9548 74.3483C55.1876 74.2544 55.6434 74.4087 58.5866 76.2549C61.9099 78.3395 63.3032 78.6735 65.0855 77.8122C68.8811 75.978 69.5106 69.9534 66.3801 65.4238C66.1489 65.0894 65.8683 64.6399 65.7564 64.425C63.4946 60.0795 57.4738 57.4401 51.5061 58.1781Z" fill="#5EC5DC"/>
</g>
<defs>
<filter id="filter0_d_207_498" x="0" y="0" width="116" height="124" filterUnits="userSpaceOnUse" color-interpolation-filters="sRGB">
<feFlood flood-opacity="0" result="BackgroundImageFix"/>
<feColorMatrix in="SourceAlpha" type="matrix" values="0 0 0 0 0 0 0 0 0 0 0 0 0 0 0 0 0 0 127 0" result="hardAlpha"/>
<feOffset dx="4" dy="7"/>
<feGaussianBlur stdDeviation="10"/>
<feComposite in2="hardAlpha" operator="out"/>
<feColorMatrix type="matrix" values="0 0 0 0 0 0 0 0 0 0 0 0 0 0 0 0 0 0 0.25 0"/>
<feBlend mode="normal" in2="BackgroundImageFix" result="effect1_dropShadow_207_498"/>
<feBlend mode="normal" in="SourceGraphic" in2="effect1_dropShadow_207_498" result="shape"/>
</filter>
<clipPath id="clip0_207_498">
<rect width="45.6" height="44.4706" fill="white" transform="translate(31.2002 36.7188)"/>
</clipPath>
</defs>
</svg>
