<svg width="54" height="34" viewBox="0 0 54 34" fill="none" xmlns="http://www.w3.org/2000/svg">
<path d="M11.6283 33.95H4.69828C3.55828 33.95 2.71828 33.71 2.17828 33.23C1.69828 32.69 1.45828 31.85 1.45828 30.71V27.11C1.45828 25.97 1.69828 25.16 2.17828 24.68C2.71828 24.14 3.55828 23.87 4.69828 23.87H10.9083C11.6883 23.87 12.2883 23.66 12.7083 23.24C13.1283 22.76 13.3383 22.13 13.3383 21.35V20H3.52828C2.38828 20 1.54828 19.76 1.00828 19.28C0.528281 18.74 0.288281 17.9 0.288281 16.76V3.44C0.288281 2.3 0.528281 1.49 1.00828 1.01C1.54828 0.469998 2.38828 0.199997 3.52828 0.199997H21.7083C22.8483 0.199997 23.6583 0.469998 24.1383 1.01C24.6783 1.49 24.9483 2.3 24.9483 3.44V20.36C24.9483 24.92 23.7183 28.34 21.2583 30.62C18.8583 32.84 15.6483 33.95 11.6283 33.95ZM40.4283 33.95H33.4983C32.3583 33.95 31.5183 33.71 30.9783 33.23C30.4983 32.69 30.2583 31.85 30.2583 30.71V27.11C30.2583 25.97 30.4983 25.16 30.9783 24.68C31.5183 24.14 32.3583 23.87 33.4983 23.87H39.7083C40.4883 23.87 41.0883 23.66 41.5083 23.24C41.9283 22.76 42.1383 22.13 42.1383 21.35V20H32.3283C31.1883 20 30.3483 19.76 29.8083 19.28C29.3283 18.74 29.0883 17.9 29.0883 16.76V3.44C29.0883 2.3 29.3283 1.49 29.8083 1.01C30.3483 0.469998 31.1883 0.199997 32.3283 0.199997H50.5083C51.6483 0.199997 52.4583 0.469998 52.9383 1.01C53.4783 1.49 53.7483 2.3 53.7483 3.44V20.36C53.7483 24.92 52.5183 28.34 50.0583 30.62C47.6583 32.84 44.4483 33.95 40.4283 33.95Z" fill="#5EC5DC"/>
</svg>
