<svg width="32" height="32" viewBox="0 0 32 32" fill="none" xmlns="http://www.w3.org/2000/svg">
<g clip-path="url(#clip0_214_272)">
<path d="M9.39961 1.99922C6.19961 3.29922 1.19961 9.69922 0.499609 13.3992C0.0996094 15.2992 0.299609 18.4992 0.999609 20.3992C1.79961 22.8992 1.79961 24.9992 1.09961 27.5992L0.0996094 31.1992L3.79961 30.4992C5.79961 30.0992 7.99961 29.7992 8.49961 29.8992C16.4996 31.2992 20.6996 30.9992 23.8996 28.7992C33.9996 21.9992 34.4996 9.79922 25.0996 3.39922C21.3996 0.899221 13.7996 0.199221 9.39961 1.99922ZM21.3996 4.39922C28.3996 7.29922 31.0996 15.9992 27.0996 22.5992C24.4996 26.8992 17.3996 29.6992 12.8996 28.0992C11.0996 27.4992 8.49961 26.9992 7.09961 26.9992C4.99961 26.9992 4.49961 26.4992 4.29961 24.1992C4.19961 22.6992 3.79961 19.4992 3.49961 16.9992C2.19961 7.09922 11.7996 0.399221 21.3996 4.39922Z" fill="white"/>
<path d="M8.69966 9.59828C6.39966 11.9983 10.0997 18.9983 14.9997 21.4983C18.7997 23.4983 22.8997 23.3983 23.6997 21.3983C24.4997 19.1983 22.0997 17.8983 18.3997 18.5983C14.6997 19.2983 12.6997 17.2983 12.5997 12.6983C12.4997 9.69828 10.3997 7.99828 8.69966 9.59828Z" fill="white"/>
</g>
<defs>
<clipPath id="clip0_214_272">
<rect width="32" height="32" fill="white"/>
</clipPath>
</defs>
</svg>
